<svg xmlns="http://www.w3.org/2000/svg" viewBox="0 0 42 40"><defs><style>.cls-1{fill:#f8d966;}.cls-2{fill:#31312e;}.cls-3{fill:#fff;}.cls-4{fill:#2aae67;fill-rule:evenodd;}</style></defs><g id="图层_2" data-name="图层 2"><g id="main"><circle class="cls-1" cx="18.95" cy="18.62" r="18"/><path class="cls-2" d="M18.79,37.25A18.73,18.73,0,0,1,0,18.63a18.79,18.79,0,0,1,37.58,0A18.73,18.73,0,0,1,18.79,37.25Zm0-35.94A17.42,17.42,0,0,0,1.32,18.63a17.48,17.48,0,0,0,35,0A17.42,17.42,0,0,0,18.79,1.31Z"/><circle class="cls-3" cx="22.95" cy="21.62" r="18"/><path class="cls-2" d="M23.21,40A18.63,18.63,0,1,1,42,21.37,18.73,18.73,0,0,1,23.21,40Zm0-35.95A17.32,17.32,0,1,0,40.68,21.37,17.42,17.42,0,0,0,23.21,4.05Z"/><path class="cls-4" d="M33,28.33a5.61,5.61,0,0,0,2.49-4.51c0-3.3-3.23-6-7.22-6S21,20.52,21,23.82s3.24,6,7.22,6a8.62,8.62,0,0,0,2.36-.33.75.75,0,0,1,.6.08l1.57.9a.27.27,0,0,0,.14,0,.25.25,0,0,0,.25-.24h0a1.16,1.16,0,0,0,0-.18l-.33-1.2a.77.77,0,0,1,0-.15.49.49,0,0,1,.2-.39M25.85,22.8a.9.9,0,1,1,.9-.89.9.9,0,0,1-.9.89m4.2,0a.89.89,0,0,1-.9-.89A.88.88,0,0,1,30,21a.89.89,0,0,1,.93.86v.06a.89.89,0,0,1-.9.89"/><path class="cls-4" d="M20.17,11.26c-4.79,0-8.67,3.2-8.67,7.16a6.75,6.75,0,0,0,3,5.42.57.57,0,0,1,.24.46.52.52,0,0,1,0,.18l-.39,1.45a.8.8,0,0,0-.05.21.29.29,0,0,0,.29.29.35.35,0,0,0,.17-.06l1.9-1.08a.82.82,0,0,1,.45-.14,1.09,1.09,0,0,1,.26,0,10.22,10.22,0,0,0,3.3.38,5.49,5.49,0,0,1-.29-1.75c0-3.61,3.54-6.54,7.9-6.54l.36,0c-.66-3.43-4.12-6-8.44-6m-2.89,5.88a1,1,0,1,1,1-1h0a1,1,0,0,1-1,1m5.77,0a1,1,0,0,1-1-1h0a1,1,0,0,1,1-1h0a1,1,0,0,1,1,1h0a1,1,0,0,1-1,1h0"/></g></g></svg>